<svg width="40" height="41" viewBox="0 0 40 41" fill="none" xmlns="http://www.w3.org/2000/svg">
<circle cx="20" cy="20.9382" r="20" fill="black"/>
<circle cx="20" cy="20.9382" r="20" fill="black"/>
<path d="M11.5625 27.3757V20.1257C11.5625 19.0212 12.4579 18.1257 13.5625 18.1257H26.4375C27.5421 18.1257 28.4375 19.0212 28.4375 20.1257V27.3757C28.4375 28.4803 27.5421 29.3757 26.4375 29.3757H13.5625C12.4579 29.3757 11.5625 28.4803 11.5625 27.3757Z" stroke="white" stroke-width="1.5"/>
<path d="M15.625 20.5216L15.625 16.8757C15.625 16.3012 15.7382 15.7323 15.958 15.2015C16.1779 14.6707 16.5002 14.1884 16.9064 13.7821C17.3127 13.3759 17.795 13.0536 18.3258 12.8338C18.8566 12.6139 19.4255 12.5007 20 12.5007C20.5745 12.5007 21.1434 12.6139 21.6742 12.8338C22.205 13.0536 22.6873 13.3759 23.0936 13.7821C23.4998 14.1884 23.8221 14.6707 24.042 15.2015C24.2618 15.7323 24.375 16.3012 24.375 16.8757V20.5216" stroke="white" stroke-width="1.5" stroke-linecap="round"/>
</svg>
